<svg xmlns="http://www.w3.org/2000/svg" width="1000" height="540" viewBox="0 0 1000 540" role="img" aria-labelledby="title desc"><title id="title">压缩率与严格 EM 分开看</title><desc id="desc">报告结果采用严格 EM；当前 evaluate_triviaqa.py 的 substring 评分方式与该口径不一致，复现实验前需要先找到对应版本的评测脚本。</desc><defs><marker id="arrow" markerWidth="8" markerHeight="8" refX="7" refY="4" orient="auto"><path d="M0 0 L8 4 L0 8" fill="none" stroke="#a34b66"/></marker></defs><rect width="1000" height="540" rx="24" fill="#fff8f5"/><g font-family="Segoe UI,Microsoft YaHei,sans-serif" fill="#452f3a"><text x="38" y="48" font-size="23" font-weight="600">压缩率与严格 EM 分开看</text><text x="38" y="78" font-size="12" fill="#936776">SYSTEM ATLAS / 2026.09 · READ THE BOUNDARIES BELOW</text><path d="M175 228 V299.0 H825 V370" fill="none" stroke="#bd8093" stroke-width="1.6" marker-end="url(#arrow)"/><text x="500.0" y="290.0" text-anchor="middle" font-size="12" fill="#874b60">基线</text><path d="M500 228 V299.0 H825 V370" fill="none" stroke="#bd8093" stroke-width="1.6" marker-end="url(#arrow)"/><text x="662.5" y="290.0" text-anchor="middle" font-size="12" fill="#874b60">对照</text><path d="M825 228 V299.0 H825 V370" fill="none" stroke="#bd8093" stroke-width="1.6" marker-end="url(#arrow)"/><text x="825.0" y="290.0" text-anchor="middle" font-size="12" fill="#874b60">对照</text><path d="M310 419 H690" fill="none" stroke="#bd8093" stroke-width="1.6" marker-end="url(#arrow)"/><text x="500.0" y="408" text-anchor="middle" font-size="12" fill="#874b60">对照</text><path d="M635 419 H690" fill="none" stroke="#bd8093" stroke-width="1.6" marker-end="url(#arrow)"/><text x="662.5" y="408" text-anchor="middle" font-size="12" fill="#874b60">对照</text><rect x="40" y="130" width="270" height="98" rx="15" fill="#fffdfb" stroke="#dfbec9"/><text x="58" y="164" font-size="18" font-weight="600">Vanilla</text><text x="58" y="195" font-size="13" fill="#805c6a">压缩 0% / EM 42.18%</text><rect x="365" y="130" width="270" height="98" rx="15" fill="#fffdfb" stroke="#dfbec9"/><text x="383" y="164" font-size="18" font-weight="600">Short</text><text x="383" y="195" font-size="13" fill="#805c6a">压缩 6.7% / EM 53.58%</text><rect x="690" y="130" width="270" height="98" rx="15" fill="#fffdfb" stroke="#dfbec9"/><text x="708" y="164" font-size="18" font-weight="600">Medium</text><text x="708" y="195" font-size="13" fill="#805c6a">压缩 15.2% / EM 46.72%</text><rect x="40" y="370" width="270" height="98" rx="15" fill="#fffdfb" stroke="#dfbec9"/><text x="58" y="404" font-size="18" font-weight="600">Long</text><text x="58" y="435" font-size="13" fill="#805c6a">压缩 24.7% / EM 46.68%</text><rect x="365" y="370" width="270" height="98" rx="15" fill="#fffdfb" stroke="#dfbec9"/><text x="383" y="404" font-size="18" font-weight="600">AllStatic</text><text x="383" y="435" font-size="13" fill="#805c6a">压缩 45.3% / EM 43.08%</text><rect x="690" y="370" width="270" height="98" rx="15" fill="#f3dce3" stroke="#dfbec9"/><text x="708" y="404" font-size="18" font-weight="600">决策原则</text><text x="708" y="435" font-size="13" fill="#805c6a">联合评估成本与质量</text></g></svg>